<svg width="624" height="330" viewBox="0 0 624 330" fill="none" xmlns="http://www.w3.org/2000/svg">
<path d="M50.9453 76V17.04H62.3053C67.3453 17.04 71.0253 18.56 73.3453 21.52C75.6653 24.16 76.7853 28.24 76.7853 33.6C76.7853 38.96 75.6653 42.96 73.3453 45.76C73.2653 45.92 73.0253 46.16 72.7053 46.48C73.0253 46.8 73.2653 47.04 73.3453 47.28C75.6653 50.08 76.7853 54.08 76.7853 59.44C76.7853 64.8 75.6653 68.88 73.3453 71.52C70.9453 74.48 67.2653 76 62.3053 76H50.9453ZM58.4653 24.56V42.72H62.3053C63.9853 42.72 65.2653 42.48 65.9853 42.08C66.7053 41.68 67.2653 41.36 67.5053 40.96C68.6253 39.6 69.1853 37.2 69.1853 33.6C69.1853 29.44 68.4653 27.2 67.2653 25.92C65.9853 24.72 64.2253 24.56 62.3053 24.56H58.4653ZM58.4653 50.24V68.48H62.3053C64.2253 68.48 65.9853 68.32 67.2653 67.04C68.4653 65.84 69.1853 63.6 69.1853 59.44C69.1853 55.2 68.3853 52.88 67.1853 51.6C65.9053 50.4 64.2253 50.24 62.3053 50.24H58.4653ZM90.9434 76H83.4234V17.04H90.9434V76ZM127.595 24.32L106.955 68.48H128.875V76H98.4753V68.64L119.115 24.56H97.1953V17.04H127.595V24.32ZM133.758 76V17.04H145.118C150.158 17.04 153.838 18.56 156.158 21.52C158.478 24.16 159.598 28.24 159.598 33.6C159.598 38.96 158.478 42.96 156.158 45.76C156.078 45.92 155.838 46.16 155.518 46.48C155.838 46.8 156.078 47.04 156.158 47.28C158.478 50.08 159.598 54.08 159.598 59.44C159.598 64.8 158.478 68.88 156.158 71.52C153.758 74.48 150.078 76 145.118 76H133.758ZM141.278 24.56V42.72H145.118C146.798 42.72 148.078 42.48 148.798 42.08C149.518 41.68 150.078 41.36 150.318 40.96C151.438 39.6 151.998 37.2 151.998 33.6C151.998 29.44 151.278 27.2 150.078 25.92C148.798 24.72 147.038 24.56 145.118 24.56H141.278ZM141.278 50.24V68.48H145.118C147.038 68.48 148.798 68.32 150.078 67.04C151.278 65.84 151.998 63.6 151.998 59.44C151.998 55.2 151.198 52.88 149.998 51.6C148.718 50.4 147.038 50.24 145.118 50.24H141.278ZM188.445 33.84C188.445 28.64 189.565 24.56 191.805 21.68C193.485 19.52 196.685 17.04 202.445 17.04C208.205 17.04 211.325 19.52 213.005 21.68C215.325 24.64 216.445 28.64 216.445 33.84V37.6H208.845V33.84C208.845 29.28 207.805 26.8 206.525 25.68C205.165 24.56 203.485 24.56 202.445 24.56C201.245 24.56 199.725 24.56 198.365 25.68C197.005 26.8 195.965 29.28 195.965 33.84V59.12C195.965 62.56 196.605 65.12 197.805 66.64C198.045 67.04 198.525 67.44 199.245 67.84C199.965 68.24 201.005 68.48 202.445 68.48C205.325 68.48 206.445 67.36 207.085 66.64C208.285 65.04 208.845 62.56 208.845 59.12V55.36H216.445V59.12C216.445 64.32 215.325 68.32 213.005 71.28C211.325 73.44 208.205 76 202.445 76C199.565 76 197.405 75.36 195.645 74.4C193.885 73.52 192.685 72.32 191.805 71.28C189.565 68.4 188.445 64.32 188.445 59.12V33.84ZM219.461 33.76C219.461 28.56 220.581 24.48 222.821 21.6C223.701 20.56 224.901 19.44 226.661 18.48C228.421 17.6 230.581 16.96 233.461 16.96C239.221 16.96 242.421 19.44 244.101 21.6C246.341 24.48 247.461 28.56 247.461 33.76V59.12C247.461 64.32 246.341 68.4 244.101 71.28C242.421 73.44 239.221 75.92 233.461 75.92C227.781 75.92 224.501 73.44 222.821 71.28C220.581 68.4 219.461 64.32 219.461 59.12V33.76ZM226.981 59.12C226.981 63.84 228.021 66.08 229.381 67.2C230.741 68.32 232.261 68.4 233.461 68.4C234.501 68.4 236.181 68.32 237.541 67.2C238.901 66.08 239.941 63.84 239.941 59.12V33.76C239.941 29.2 238.901 26.8 237.541 25.68C236.181 24.56 234.501 24.56 233.461 24.56C232.261 24.56 230.741 24.56 229.381 25.68C228.021 26.8 226.981 29.2 226.981 33.76V59.12ZM277.563 75.92H251.883V16.96H259.403V68.4H277.563V75.92ZM306.078 75.92H280.398V16.96H287.918V68.4H306.078V75.92ZM330.674 59.52H320.434L316.674 76H308.914L322.514 17.04H328.514L342.274 76H334.434L330.674 59.52ZM322.194 52H328.914L325.554 37.52L322.194 52ZM343.836 76V17.04H355.196C360.236 17.04 363.916 18.56 366.236 21.52C368.556 24.16 369.676 28.24 369.676 33.6C369.676 38.96 368.556 42.96 366.236 45.76C366.156 45.92 365.916 46.16 365.596 46.48C365.916 46.8 366.156 47.04 366.236 47.28C368.556 50.08 369.676 54.08 369.676 59.44C369.676 64.8 368.556 68.88 366.236 71.52C363.836 74.48 360.156 76 355.196 76H343.836ZM351.356 24.56V42.72H355.196C356.876 42.72 358.156 42.48 358.876 42.08C359.596 41.68 360.156 41.36 360.396 40.96C361.516 39.6 362.076 37.2 362.076 33.6C362.076 29.44 361.356 27.2 360.156 25.92C358.876 24.72 357.116 24.56 355.196 24.56H351.356ZM351.356 50.24V68.48H355.196C357.116 68.48 358.876 68.32 360.156 67.04C361.356 65.84 362.076 63.6 362.076 59.44C362.076 55.2 361.276 52.88 360.076 51.6C358.796 50.4 357.116 50.24 355.196 50.24H351.356ZM373.914 33.76C373.914 28.56 375.034 24.48 377.274 21.6C378.154 20.56 379.354 19.44 381.114 18.48C382.874 17.6 385.034 16.96 387.914 16.96C393.674 16.96 396.874 19.44 398.554 21.6C400.794 24.48 401.914 28.56 401.914 33.76V59.12C401.914 64.32 400.794 68.4 398.554 71.28C396.874 73.44 393.674 75.92 387.914 75.92C382.234 75.92 378.954 73.44 377.274 71.28C375.034 68.4 373.914 64.32 373.914 59.12V33.76ZM381.434 59.12C381.434 63.84 382.474 66.08 383.834 67.2C385.194 68.32 386.714 68.4 387.914 68.4C388.954 68.4 390.634 68.32 391.994 67.2C393.354 66.08 394.394 63.84 394.394 59.12V33.76C394.394 29.2 393.354 26.8 391.994 25.68C390.634 24.56 388.954 24.56 387.914 24.56C386.714 24.56 385.194 24.56 383.834 25.68C382.474 26.8 381.434 29.2 381.434 33.76V59.12ZM433.696 75.92H426.096V58.48C426.096 53.28 423.616 50.72 418.576 50.72H413.856V75.92H406.336V16.96H418.576C428.736 16.96 433.536 22.8 433.536 33.76C433.536 39.2 432.336 43.36 430.016 46.16C429.936 46.24 429.776 46.4 429.696 46.56C429.536 46.72 429.376 46.88 429.216 46.96C432.096 49.76 433.696 53.6 433.696 58.48V75.92ZM413.856 43.12H418.576C420.576 43.12 422.016 42.88 422.816 42.4C423.536 41.92 424.016 41.52 424.256 41.28C425.456 39.76 426.016 37.28 426.016 33.76C426.016 29.84 425.376 27.52 424.176 26.16C422.896 24.88 421.056 24.56 418.576 24.56H413.856V43.12ZM461.455 59.52H451.215L447.455 76H439.695L453.295 17.04H459.295L473.055 76H465.215L461.455 59.52ZM452.975 52H459.695L456.335 37.52L452.975 52ZM474.617 16.96H507.977V24.56H495.097V75.92H487.497V24.56H474.617V16.96ZM535.892 17.04V24.56H519.012V42.72H535.892V50.24H519.012V68.48H535.892V76H511.492V17.04H535.892ZM541.258 55.44H548.778V59.2C548.778 62.64 549.418 65.12 550.618 66.64C550.858 67.04 551.338 67.36 552.058 67.76C552.778 68.16 553.818 68.4 555.338 68.4C558.218 68.4 559.818 66.96 560.778 65.2C561.658 63.44 561.818 61.2 561.818 59.6C561.818 56.8 560.858 54.96 559.498 53.6C558.138 52.32 556.298 51.44 554.618 50.72L553.178 50.08C551.498 49.36 548.618 48.16 546.058 45.68C542.858 42.56 541.258 38.64 541.258 33.84C541.258 28.8 542.618 24.56 545.178 21.6C547.658 18.72 551.178 16.96 555.338 16.96C561.098 16.96 564.298 19.44 565.978 21.6C568.298 24.56 569.418 28.64 569.418 33.84V37.6H561.818V33.84C561.818 29.28 560.778 26.8 559.418 25.68C558.058 24.56 556.378 24.56 555.338 24.56C552.218 24.56 550.698 26.24 549.818 28.32C548.858 30.4 548.778 32.8 548.778 33.84C548.778 36.64 549.738 38.48 551.098 39.92C552.458 41.36 554.298 42.4 556.218 43.12L557.498 43.68C559.018 44.32 561.898 45.36 564.458 47.84C567.738 50.88 569.418 54.8 569.418 59.6C569.418 68.64 564.378 75.92 555.338 75.92C545.978 75.92 541.258 69.76 541.258 59.2V55.44ZM54.4309 150.64L62.7509 113.04H70.5109L57.4709 172H51.3909L43.1509 134.32L34.8309 172H28.7509L15.7109 113.04H23.4709L31.7909 150.64L40.1109 113.04H46.1909L54.4309 150.64ZM83.2091 172H75.6891V113.04H83.2091V172ZM89.4609 112.96H122.821V120.56H109.941V171.92H102.341V120.56H89.4609V112.96ZM145.216 138.72V113.04H152.816V172H145.216V146.32H133.856V172H126.336V113.04H133.856V138.72H145.216Z" fill="black"/>
<path d="M211.84 133.68H208.96V129.92C208.96 120.56 205.2 115.92 197.76 115.92C190.48 115.92 186.48 121.84 186.48 129.92C186.48 134.48 188.24 137.6 190.48 139.68C192.64 141.76 195.2 142.88 196.72 143.52L198.08 144.16C199.44 144.72 201.68 145.52 203.6 147.28C205.52 149.04 207.12 151.76 207.12 155.68C207.12 163.04 203.6 167.28 197.76 167.28C191.44 167.28 188.4 163.6 188.4 155.28V151.52H191.2V155.28C191.2 158.72 191.84 161.2 193.04 162.72C193.28 163.12 193.76 163.44 194.48 163.84C195.2 164.24 196.24 164.48 197.76 164.48C200.64 164.48 202.24 163.04 203.2 161.28C204.08 159.52 204.24 157.28 204.24 155.68C204.24 152.88 203.28 151.04 201.92 149.68C200.56 148.4 198.72 147.52 197.04 146.8L195.6 146.16C193.92 145.44 191.04 144.24 188.48 141.76C185.28 138.64 183.68 134.72 183.68 129.92C183.68 124.88 185.04 120.64 187.6 117.68C190.08 114.8 193.6 113.04 197.76 113.04C203.52 113.04 206.72 115.52 208.4 117.68C210.72 120.64 211.84 124.72 211.84 129.92V133.68ZM183.68 151.52H186.48V155.28C186.48 164.48 190.32 169.2 197.76 169.2C201.28 169.2 204.24 167.84 206.16 165.2C208 162.88 208.96 159.52 208.96 155.68C208.96 151.12 207.12 148 204.96 146C202.72 144 200.16 142.96 198.8 142.4L197.52 141.84C196 141.2 193.76 140.24 191.84 138.32C189.92 136.48 188.4 133.84 188.4 129.92C188.4 127.12 188.96 124.08 190.48 121.76C192 119.44 194.32 117.76 197.76 117.76C203.92 117.76 207.12 121.6 207.12 129.92V133.68H204.24V129.92C204.24 125.36 203.2 122.88 201.84 121.76C200.48 120.64 198.8 120.64 197.76 120.64C194.64 120.64 193.12 122.32 192.24 124.4C191.28 126.48 191.2 128.88 191.2 129.92C191.2 132.72 192.16 134.56 193.52 136C194.88 137.44 196.72 138.48 198.64 139.2L199.92 139.76C201.44 140.4 204.32 141.44 206.88 143.92C210.16 146.96 211.84 150.88 211.84 155.68C211.84 164.72 206.8 172 197.76 172C188.4 172 183.68 165.84 183.68 155.28V151.52ZM229.957 113.04H235.957L249.637 172H246.677L233.797 116.4H232.037L219.157 172H216.277L229.957 113.04ZM232.917 121.04L239.797 150.88H225.957L232.917 121.04ZM232.917 133.6L229.557 148H236.277L232.917 133.6ZM224.037 172H221.077L225.557 152.72H240.277L244.757 172H241.877L238.037 155.6H227.797L224.037 172ZM255.777 112.96V171.92H252.977V112.96H255.777ZM274.737 141.52H257.697V112.96H260.497V138.72H271.857V112.96H274.737V141.52ZM276.577 171.92V112.96H279.457V171.92H276.577ZM257.697 143.44H274.737V171.92H271.857V146.24H260.497V171.92H257.697V143.44ZM288.511 115.92V169.2H310.111V172H285.711V113.04H310.111V115.92H288.511ZM290.431 117.76H310.111V120.64H293.231V138.72H310.111V141.6H290.431V117.76ZM290.431 143.44H310.111V146.32H293.231V164.48H310.111V167.28H290.431V143.44ZM318.277 115.92V169.2H339.877V172H315.477V113.04H339.877V115.92H318.277ZM320.197 117.76H339.877V120.64H322.997V138.72H339.877V141.6H320.197V117.76ZM320.197 143.44H339.877V146.32H322.997V164.48H339.877V167.28H320.197V143.44ZM359.722 113.04H365.722L379.402 172H376.442L363.562 116.4H361.802L348.922 172H346.042L359.722 113.04ZM362.682 121.04L369.562 150.88H355.722L362.682 121.04ZM362.682 133.6L359.322 148H366.042L362.682 133.6ZM353.802 172H350.842L355.322 152.72H370.042L374.522 172H371.642L367.802 155.6H357.562L353.802 172ZM430.952 112.96H433.752V156.24C433.752 161.12 432.712 164.96 430.552 167.6C429.032 169.6 425.992 171.92 420.552 171.92C415.192 171.92 412.152 169.6 410.552 167.6C408.392 164.96 407.352 161.12 407.352 156.24V152.48H410.152V156.24C410.152 164.8 413.752 169.12 420.552 169.12C427.512 169.12 430.952 164.64 430.952 156.24V112.96ZM412.072 152.48H414.872V156.24C414.872 160.32 415.752 162.4 416.952 163.36C418.152 164.4 419.512 164.4 420.552 164.4C421.912 164.4 422.872 164.24 423.432 163.84C423.992 163.52 424.472 163.2 424.712 162.88C425.752 161.52 426.232 159.36 426.232 156.24V112.96H429.032V156.24C429.032 163.84 426.312 167.2 420.552 167.2C414.872 167.2 412.072 163.84 412.072 156.24V152.48ZM454.253 113.04H460.253L473.933 172H470.973L458.093 116.4H456.333L443.453 172H440.573L454.253 113.04ZM457.213 121.04L464.093 150.88H450.253L457.213 121.04ZM457.213 133.6L453.853 148H460.573L457.213 133.6ZM448.333 172H445.373L449.853 152.72H464.573L469.053 172H466.173L462.333 155.6H452.093L448.333 172ZM477.273 172V169.2H488.633C496.633 169.2 500.233 164.8 500.233 155.44C500.233 150.8 499.353 147.36 497.513 145.04C496.633 144 495.433 143.12 494.073 142.48C498.153 140.8 500.233 136.56 500.233 129.6C500.233 120.24 496.633 115.92 488.633 115.92H477.273V113.04H488.633C498.553 113.04 503.113 119.04 503.113 129.6C503.113 134.96 501.993 138.96 499.673 141.76C499.433 142.08 499.273 142.32 499.033 142.56C499.353 142.88 499.593 143.12 499.673 143.28C501.993 146.08 503.113 150.08 503.113 155.44C503.113 166.08 498.553 172 488.633 172H477.273ZM480.073 117.76V167.28H477.273V117.76H480.073ZM481.993 141.6V117.76H488.633C495.593 117.76 498.393 121.28 498.393 129.6C498.393 138 495.433 141.6 488.633 141.6H481.993ZM484.793 120.64V138.72H488.633C490.313 138.72 491.593 138.56 492.313 138.16C493.033 137.76 493.593 137.36 493.833 136.96C494.953 135.6 495.513 133.2 495.513 129.6C495.513 125.44 494.793 123.2 493.593 122C492.313 120.8 490.553 120.64 488.633 120.64H484.793ZM481.993 167.28V143.44H488.633C495.433 143.44 498.393 147.04 498.393 155.44C498.393 163.68 495.593 167.28 488.633 167.28H481.993ZM484.793 146.32V164.48H488.633C490.553 164.48 492.313 164.32 493.593 163.12C494.793 161.92 495.513 159.6 495.513 155.44C495.513 151.2 494.713 148.96 493.513 147.68C492.233 146.48 490.553 146.32 488.633 146.32H484.793ZM507.352 172V169.2H518.712C526.712 169.2 530.312 164.8 530.312 155.44C530.312 150.8 529.432 147.36 527.592 145.04C526.712 144 525.512 143.12 524.152 142.48C528.232 140.8 530.312 136.56 530.312 129.6C530.312 120.24 526.712 115.92 518.712 115.92H507.352V113.04H518.712C528.632 113.04 533.192 119.04 533.192 129.6C533.192 134.96 532.072 138.96 529.752 141.76C529.512 142.08 529.352 142.32 529.112 142.56C529.432 142.88 529.672 143.12 529.752 143.28C532.072 146.08 533.192 150.08 533.192 155.44C533.192 166.08 528.632 172 518.712 172H507.352ZM510.152 117.76V167.28H507.352V117.76H510.152ZM512.072 141.6V117.76H518.712C525.672 117.76 528.472 121.28 528.472 129.6C528.472 138 525.512 141.6 518.712 141.6H512.072ZM514.872 120.64V138.72H518.712C520.392 138.72 521.672 138.56 522.392 138.16C523.112 137.76 523.672 137.36 523.912 136.96C525.032 135.6 525.592 133.2 525.592 129.6C525.592 125.44 524.872 123.2 523.672 122C522.392 120.8 520.632 120.64 518.712 120.64H514.872ZM512.072 167.28V143.44H518.712C525.512 143.44 528.472 147.04 528.472 155.44C528.472 163.68 525.672 167.28 518.712 167.28H512.072ZM514.872 146.32V164.48H518.712C520.632 164.48 522.392 164.32 523.672 163.12C524.872 161.92 525.592 159.6 525.592 155.44C525.592 151.2 524.792 148.96 523.592 147.68C522.312 146.48 520.632 146.32 518.712 146.32H514.872ZM551.91 113.04H557.91L571.59 172H568.63L555.75 116.4H553.99L541.11 172H538.23L551.91 113.04ZM554.87 121.04L561.75 150.88H547.91L554.87 121.04ZM554.87 133.6L551.51 148H558.23L554.87 133.6ZM545.99 172H543.03L547.51 152.72H562.23L566.71 172H563.83L559.99 155.6H549.75L545.99 172ZM602.29 172H599.41V154.56C599.41 150.64 598.29 147.52 595.97 145.2C595.01 144.32 593.89 143.6 592.61 143.04C597.09 141.36 599.33 136.96 599.33 129.84C599.33 120.32 595.57 115.92 587.17 115.92H574.93V113.04H587.17C597.33 113.04 602.13 118.88 602.13 129.84C602.13 135.28 600.93 139.44 598.61 142.24C598.53 142.32 598.37 142.48 598.29 142.64C598.13 142.8 597.97 142.96 597.81 143.04C600.69 145.84 602.29 149.68 602.29 154.56V172ZM574.93 117.76H577.73V172H574.93V117.76ZM579.65 142V117.76H587.17C594.45 117.76 597.41 121.28 597.41 129.84C597.41 138.48 594.45 142 587.17 142H579.65ZM582.45 120.64V139.2H587.17C589.17 139.2 590.61 138.96 591.41 138.48C592.13 138 592.61 137.6 592.85 137.36C594.05 135.84 594.61 133.36 594.61 129.84C594.61 125.92 593.97 123.6 592.77 122.24C591.49 120.96 589.65 120.64 587.17 120.64H582.45ZM597.57 172H594.69V154.56C594.69 149.36 592.21 146.8 587.17 146.8H582.45V172H579.65V143.92H587.17C593.81 143.92 597.57 147.76 597.57 154.56V172Z" fill="white"/>
<path d="M128.782 267.451C129.916 267.451 130.882 267.318 131.68 267.052C132.492 266.786 133.15 266.422 133.654 265.96C134.172 265.498 134.55 264.952 134.788 264.322C135.026 263.678 135.145 262.978 135.145 262.222C135.145 260.724 134.627 259.548 133.591 258.694C132.555 257.826 130.952 257.392 128.782 257.392H122.482V267.451H128.782ZM122.482 244.351V254.221H127.627C129.825 254.221 131.456 253.78 132.52 252.898C133.598 252.002 134.137 250.798 134.137 249.286C134.137 247.564 133.626 246.311 132.604 245.527C131.582 244.743 129.993 244.351 127.837 244.351H122.482ZM127.837 240.844C129.727 240.844 131.344 241.026 132.688 241.39C134.046 241.754 135.159 242.279 136.027 242.965C136.895 243.651 137.532 244.484 137.938 245.464C138.358 246.43 138.568 247.529 138.568 248.761C138.568 249.489 138.456 250.189 138.232 250.861C138.008 251.533 137.665 252.163 137.203 252.751C136.741 253.325 136.16 253.843 135.46 254.305C134.76 254.767 133.934 255.152 132.982 255.46C137.364 256.328 139.555 258.617 139.555 262.327C139.555 263.615 139.317 264.791 138.841 265.855C138.365 266.905 137.672 267.815 136.762 268.585C135.852 269.355 134.732 269.95 133.402 270.37C132.072 270.79 130.56 271 128.866 271H118.009V240.844H127.837ZM161.779 249.664V271H159.322C158.762 271 158.398 270.727 158.23 270.181L157.936 268.039C157.474 268.529 156.991 268.977 156.487 269.383C155.983 269.789 155.444 270.139 154.87 270.433C154.296 270.713 153.687 270.93 153.043 271.084C152.399 271.252 151.706 271.336 150.964 271.336C149.788 271.336 148.752 271.14 147.856 270.748C146.974 270.356 146.232 269.81 145.63 269.11C145.028 268.396 144.573 267.542 144.265 266.548C143.957 265.554 143.803 264.455 143.803 263.251V249.664H147.919V263.251C147.919 264.777 148.269 265.967 148.969 266.821C149.669 267.661 150.74 268.081 152.182 268.081C153.232 268.081 154.212 267.836 155.122 267.346C156.032 266.842 156.886 266.156 157.684 265.288V249.664H161.779ZM186.143 249.664L174.299 277.195C174.173 277.503 174.005 277.741 173.795 277.909C173.585 278.077 173.277 278.161 172.871 278.161H169.826L173.732 269.656L164.975 249.664H168.545C168.895 249.664 169.168 249.748 169.364 249.916C169.56 250.084 169.7 250.273 169.784 250.483L175.202 263.293C175.314 263.615 175.419 263.944 175.517 264.28C175.629 264.602 175.72 264.924 175.79 265.246C175.888 264.91 175.993 264.581 176.105 264.259C176.217 263.923 176.336 263.594 176.462 263.272L181.691 250.483C181.789 250.245 181.943 250.049 182.153 249.895C182.363 249.741 182.601 249.664 182.867 249.664H186.143ZM215.315 245.758C215.175 245.996 215.028 246.171 214.874 246.283C214.72 246.395 214.524 246.451 214.286 246.451C214.034 246.451 213.747 246.339 213.425 246.115C213.103 245.877 212.697 245.618 212.207 245.338C211.731 245.044 211.157 244.785 210.485 244.561C209.813 244.323 209.008 244.204 208.07 244.204C207.188 244.204 206.411 244.323 205.739 244.561C205.081 244.785 204.528 245.1 204.08 245.506C203.632 245.898 203.289 246.367 203.051 246.913C202.827 247.445 202.715 248.026 202.715 248.656C202.715 249.468 202.918 250.14 203.324 250.672C203.744 251.204 204.29 251.659 204.962 252.037C205.634 252.415 206.397 252.744 207.251 253.024C208.105 253.304 208.98 253.598 209.876 253.906C210.772 254.2 211.647 254.543 212.501 254.935C213.355 255.327 214.118 255.824 214.79 256.426C215.462 257.014 216.001 257.742 216.407 258.61C216.827 259.464 217.037 260.514 217.037 261.76C217.037 263.09 216.806 264.336 216.344 265.498C215.896 266.66 215.238 267.675 214.37 268.543C213.502 269.411 212.431 270.097 211.157 270.601C209.897 271.091 208.462 271.336 206.852 271.336C205.886 271.336 204.948 271.238 204.038 271.042C203.128 270.86 202.267 270.601 201.455 270.265C200.643 269.915 199.88 269.502 199.166 269.026C198.466 268.536 197.836 267.99 197.276 267.388L198.557 265.246C198.683 265.078 198.83 264.938 198.998 264.826C199.18 264.714 199.383 264.658 199.607 264.658C199.901 264.658 200.237 264.812 200.615 265.12C201.007 265.428 201.483 265.771 202.043 266.149C202.617 266.513 203.296 266.849 204.08 267.157C204.878 267.465 205.844 267.619 206.978 267.619C207.902 267.619 208.728 267.5 209.456 267.262C210.184 267.01 210.793 266.66 211.283 266.212C211.787 265.75 212.172 265.197 212.438 264.553C212.704 263.909 212.837 263.195 212.837 262.411C212.837 261.529 212.634 260.808 212.228 260.248C211.822 259.688 211.283 259.219 210.611 258.841C209.939 258.463 209.176 258.141 208.322 257.875C207.468 257.609 206.593 257.336 205.697 257.056C204.801 256.762 203.926 256.426 203.072 256.048C202.218 255.67 201.455 255.18 200.783 254.578C200.111 253.962 199.572 253.199 199.166 252.289C198.76 251.365 198.557 250.231 198.557 248.887C198.557 247.809 198.767 246.766 199.187 245.758C199.607 244.75 200.216 243.861 201.014 243.091C201.826 242.307 202.82 241.684 203.996 241.222C205.172 240.746 206.516 240.508 208.028 240.508C209.722 240.508 211.276 240.781 212.69 241.327C214.118 241.859 215.357 242.629 216.407 243.637L215.315 245.758ZM232.897 261.529C231.231 261.585 229.817 261.718 228.655 261.928C227.493 262.124 226.548 262.39 225.82 262.726C225.092 263.062 224.567 263.461 224.245 263.923C223.923 264.371 223.762 264.875 223.762 265.435C223.762 265.967 223.846 266.429 224.014 266.821C224.196 267.199 224.434 267.514 224.728 267.766C225.036 268.004 225.393 268.179 225.799 268.291C226.205 268.403 226.646 268.459 227.122 268.459C227.752 268.459 228.326 268.396 228.844 268.27C229.376 268.144 229.873 267.969 230.335 267.745C230.797 267.507 231.238 267.22 231.658 266.884C232.078 266.548 232.491 266.163 232.897 265.729V261.529ZM220.885 252.646C222.075 251.512 223.363 250.665 224.749 250.105C226.149 249.545 227.682 249.265 229.348 249.265C230.566 249.265 231.644 249.468 232.582 249.874C233.52 250.266 234.311 250.819 234.955 251.533C235.599 252.247 236.082 253.101 236.404 254.095C236.74 255.089 236.908 256.188 236.908 257.392V271H235.081C234.675 271 234.367 270.937 234.157 270.811C233.947 270.671 233.779 270.419 233.653 270.055L233.212 268.186C232.666 268.69 232.127 269.138 231.595 269.53C231.063 269.908 230.503 270.237 229.915 270.517C229.341 270.783 228.725 270.986 228.067 271.126C227.409 271.266 226.681 271.336 225.883 271.336C225.043 271.336 224.252 271.224 223.51 271C222.782 270.762 222.145 270.405 221.599 269.929C221.053 269.453 220.619 268.858 220.297 268.144C219.989 267.43 219.835 266.597 219.835 265.645C219.835 264.805 220.059 264 220.507 263.23C220.969 262.446 221.711 261.746 222.733 261.13C223.769 260.514 225.113 260.01 226.765 259.618C228.431 259.226 230.475 259.002 232.897 258.946V257.392C232.897 255.782 232.554 254.578 231.868 253.78C231.182 252.982 230.174 252.583 228.844 252.583C227.948 252.583 227.192 252.695 226.576 252.919C225.974 253.143 225.449 253.395 225.001 253.675C224.567 253.941 224.182 254.186 223.846 254.41C223.524 254.634 223.188 254.746 222.838 254.746C222.558 254.746 222.313 254.669 222.103 254.515C221.907 254.361 221.746 254.179 221.62 253.969L220.885 252.646ZM246.485 252.373C247.381 251.463 248.368 250.728 249.446 250.168C250.538 249.608 251.791 249.328 253.205 249.328C254.381 249.328 255.41 249.524 256.292 249.916C257.188 250.308 257.937 250.861 258.539 251.575C259.141 252.275 259.596 253.122 259.904 254.116C260.212 255.11 260.366 256.209 260.366 257.413V271H256.25V257.413C256.25 255.887 255.9 254.704 255.2 253.864C254.5 253.01 253.429 252.583 251.987 252.583C250.937 252.583 249.95 252.835 249.026 253.339C248.116 253.829 247.269 254.501 246.485 255.355V271H242.39V240.004H246.485V252.373ZM280.025 257.959C280.025 257.147 279.906 256.398 279.668 255.712C279.444 255.026 279.108 254.431 278.66 253.927C278.212 253.423 277.666 253.031 277.022 252.751C276.378 252.471 275.636 252.331 274.796 252.331C273.074 252.331 271.716 252.828 270.722 253.822C269.742 254.816 269.119 256.195 268.853 257.959H280.025ZM283.406 267.955C282.902 268.543 282.321 269.054 281.663 269.488C281.005 269.908 280.305 270.251 279.563 270.517C278.821 270.783 278.051 270.979 277.253 271.105C276.469 271.231 275.692 271.294 274.922 271.294C273.452 271.294 272.087 271.049 270.827 270.559C269.581 270.055 268.496 269.327 267.572 268.375C266.662 267.409 265.948 266.219 265.43 264.805C264.926 263.377 264.674 261.739 264.674 259.891C264.674 258.407 264.905 257.028 265.367 255.754C265.829 254.466 266.487 253.346 267.341 252.394C268.209 251.442 269.266 250.693 270.512 250.147C271.758 249.601 273.158 249.328 274.712 249.328C276.014 249.328 277.211 249.545 278.303 249.979C279.409 250.399 280.361 251.015 281.159 251.827C281.957 252.639 282.58 253.64 283.028 254.83C283.49 256.02 283.721 257.378 283.721 258.904C283.721 259.534 283.651 259.961 283.511 260.185C283.371 260.395 283.112 260.5 282.734 260.5H268.748C268.79 261.774 268.972 262.887 269.294 263.839C269.616 264.777 270.057 265.561 270.617 266.191C271.191 266.821 271.87 267.29 272.654 267.598C273.438 267.906 274.313 268.06 275.279 268.06C276.189 268.06 276.973 267.955 277.631 267.745C278.303 267.535 278.877 267.311 279.353 267.073C279.843 266.821 280.249 266.59 280.571 266.38C280.907 266.17 281.201 266.065 281.453 266.065C281.789 266.065 282.048 266.191 282.23 266.443L283.406 267.955ZM302.255 257.959C302.255 257.147 302.136 256.398 301.898 255.712C301.674 255.026 301.338 254.431 300.89 253.927C300.442 253.423 299.896 253.031 299.252 252.751C298.608 252.471 297.866 252.331 297.026 252.331C295.304 252.331 293.946 252.828 292.952 253.822C291.972 254.816 291.349 256.195 291.083 257.959H302.255ZM305.636 267.955C305.132 268.543 304.551 269.054 303.893 269.488C303.235 269.908 302.535 270.251 301.793 270.517C301.051 270.783 300.281 270.979 299.483 271.105C298.699 271.231 297.922 271.294 297.152 271.294C295.682 271.294 294.317 271.049 293.057 270.559C291.811 270.055 290.726 269.327 289.802 268.375C288.892 267.409 288.178 266.219 287.66 264.805C287.156 263.377 286.904 261.739 286.904 259.891C286.904 258.407 287.135 257.028 287.597 255.754C288.059 254.466 288.717 253.346 289.571 252.394C290.439 251.442 291.496 250.693 292.742 250.147C293.988 249.601 295.388 249.328 296.942 249.328C298.244 249.328 299.441 249.545 300.533 249.979C301.639 250.399 302.591 251.015 303.389 251.827C304.187 252.639 304.81 253.64 305.258 254.83C305.72 256.02 305.951 257.378 305.951 258.904C305.951 259.534 305.881 259.961 305.741 260.185C305.601 260.395 305.342 260.5 304.964 260.5H290.978C291.02 261.774 291.202 262.887 291.524 263.839C291.846 264.777 292.287 265.561 292.847 266.191C293.421 266.821 294.1 267.29 294.884 267.598C295.668 267.906 296.543 268.06 297.509 268.06C298.419 268.06 299.203 267.955 299.861 267.745C300.533 267.535 301.107 267.311 301.583 267.073C302.073 266.821 302.479 266.59 302.801 266.38C303.137 266.17 303.431 266.065 303.683 266.065C304.019 266.065 304.278 266.191 304.46 266.443L305.636 267.955ZM311.513 271V253.024L309.287 252.751C308.965 252.681 308.699 252.569 308.489 252.415C308.293 252.247 308.195 252.009 308.195 251.701V250H311.513V248.068C311.513 246.85 311.688 245.765 312.038 244.813C312.388 243.861 312.885 243.056 313.529 242.398C314.187 241.726 314.971 241.222 315.881 240.886C316.805 240.536 317.841 240.361 318.989 240.361C319.955 240.361 320.844 240.501 321.656 240.781L321.572 242.839C321.558 243.021 321.502 243.161 321.404 243.259C321.306 243.343 321.173 243.406 321.005 243.448C320.851 243.49 320.655 243.518 320.417 243.532C320.193 243.532 319.948 243.532 319.682 243.532C319.052 243.532 318.478 243.609 317.96 243.763C317.442 243.917 317.001 244.176 316.637 244.54C316.273 244.904 315.993 245.387 315.797 245.989C315.601 246.577 315.503 247.312 315.503 248.194V250H321.488V252.982H315.629V271H311.513ZM336.256 261.529C334.59 261.585 333.176 261.718 332.014 261.928C330.852 262.124 329.907 262.39 329.179 262.726C328.451 263.062 327.926 263.461 327.604 263.923C327.282 264.371 327.121 264.875 327.121 265.435C327.121 265.967 327.205 266.429 327.373 266.821C327.555 267.199 327.793 267.514 328.087 267.766C328.395 268.004 328.752 268.179 329.158 268.291C329.564 268.403 330.005 268.459 330.481 268.459C331.111 268.459 331.685 268.396 332.203 268.27C332.735 268.144 333.232 267.969 333.694 267.745C334.156 267.507 334.597 267.22 335.017 266.884C335.437 266.548 335.85 266.163 336.256 265.729V261.529ZM324.244 252.646C325.434 251.512 326.722 250.665 328.108 250.105C329.508 249.545 331.041 249.265 332.707 249.265C333.925 249.265 335.003 249.468 335.941 249.874C336.879 250.266 337.67 250.819 338.314 251.533C338.958 252.247 339.441 253.101 339.763 254.095C340.099 255.089 340.267 256.188 340.267 257.392V271H338.44C338.034 271 337.726 270.937 337.516 270.811C337.306 270.671 337.138 270.419 337.012 270.055L336.571 268.186C336.025 268.69 335.486 269.138 334.954 269.53C334.422 269.908 333.862 270.237 333.274 270.517C332.7 270.783 332.084 270.986 331.426 271.126C330.768 271.266 330.04 271.336 329.242 271.336C328.402 271.336 327.611 271.224 326.869 271C326.141 270.762 325.504 270.405 324.958 269.929C324.412 269.453 323.978 268.858 323.656 268.144C323.348 267.43 323.194 266.597 323.194 265.645C323.194 264.805 323.418 264 323.866 263.23C324.328 262.446 325.07 261.746 326.092 261.13C327.128 260.514 328.472 260.01 330.124 259.618C331.79 259.226 333.834 259.002 336.256 258.946V257.392C336.256 255.782 335.913 254.578 335.227 253.78C334.541 252.982 333.533 252.583 332.203 252.583C331.307 252.583 330.551 252.695 329.935 252.919C329.333 253.143 328.808 253.395 328.36 253.675C327.926 253.941 327.541 254.186 327.205 254.41C326.883 254.634 326.547 254.746 326.197 254.746C325.917 254.746 325.672 254.669 325.462 254.515C325.266 254.361 325.105 254.179 324.979 253.969L324.244 252.646ZM366.671 260.5C366.671 262.18 366.461 263.692 366.041 265.036C365.621 266.38 365.005 267.521 364.193 268.459C363.395 269.383 362.394 270.097 361.19 270.601C360 271.091 358.628 271.336 357.074 271.336C355.674 271.336 354.232 271.14 352.748 270.748L353 268.102C353.028 267.85 353.119 267.647 353.273 267.493C353.441 267.325 353.686 267.241 354.008 267.241C354.246 267.241 354.568 267.304 354.974 267.43C355.394 267.542 355.94 267.598 356.612 267.598C357.508 267.598 358.299 267.465 358.985 267.199C359.685 266.933 360.273 266.52 360.749 265.96C361.225 265.386 361.582 264.658 361.82 263.776C362.072 262.894 362.198 261.837 362.198 260.605V240.844H366.671V260.5ZM383.629 261.529C381.963 261.585 380.549 261.718 379.387 261.928C378.225 262.124 377.28 262.39 376.552 262.726C375.824 263.062 375.299 263.461 374.977 263.923C374.655 264.371 374.494 264.875 374.494 265.435C374.494 265.967 374.578 266.429 374.746 266.821C374.928 267.199 375.166 267.514 375.46 267.766C375.768 268.004 376.125 268.179 376.531 268.291C376.937 268.403 377.378 268.459 377.854 268.459C378.484 268.459 379.058 268.396 379.576 268.27C380.108 268.144 380.605 267.969 381.067 267.745C381.529 267.507 381.97 267.22 382.39 266.884C382.81 266.548 383.223 266.163 383.629 265.729V261.529ZM371.617 252.646C372.807 251.512 374.095 250.665 375.481 250.105C376.881 249.545 378.414 249.265 380.08 249.265C381.298 249.265 382.376 249.468 383.314 249.874C384.252 250.266 385.043 250.819 385.687 251.533C386.331 252.247 386.814 253.101 387.136 254.095C387.472 255.089 387.64 256.188 387.64 257.392V271H385.813C385.407 271 385.099 270.937 384.889 270.811C384.679 270.671 384.511 270.419 384.385 270.055L383.944 268.186C383.398 268.69 382.859 269.138 382.327 269.53C381.795 269.908 381.235 270.237 380.647 270.517C380.073 270.783 379.457 270.986 378.799 271.126C378.141 271.266 377.413 271.336 376.615 271.336C375.775 271.336 374.984 271.224 374.242 271C373.514 270.762 372.877 270.405 372.331 269.929C371.785 269.453 371.351 268.858 371.029 268.144C370.721 267.43 370.567 266.597 370.567 265.645C370.567 264.805 370.791 264 371.239 263.23C371.701 262.446 372.443 261.746 373.465 261.13C374.501 260.514 375.845 260.01 377.497 259.618C379.163 259.226 381.207 259.002 383.629 258.946V257.392C383.629 255.782 383.286 254.578 382.6 253.78C381.914 252.982 380.906 252.583 379.576 252.583C378.68 252.583 377.924 252.695 377.308 252.919C376.706 253.143 376.181 253.395 375.733 253.675C375.299 253.941 374.914 254.186 374.578 254.41C374.256 254.634 373.92 254.746 373.57 254.746C373.29 254.746 373.045 254.669 372.835 254.515C372.639 254.361 372.478 254.179 372.352 253.969L371.617 252.646ZM397.217 265.75C397.889 266.632 398.617 267.248 399.401 267.598C400.185 267.948 401.039 268.123 401.963 268.123C403.867 268.123 405.33 267.444 406.352 266.086C407.388 264.728 407.906 262.677 407.906 259.933C407.906 257.399 407.451 255.544 406.541 254.368C405.631 253.178 404.343 252.583 402.677 252.583C401.501 252.583 400.479 252.849 399.611 253.381C398.757 253.913 397.959 254.669 397.217 255.649V265.75ZM397.217 252.604C398.099 251.624 399.1 250.833 400.22 250.231C401.34 249.629 402.614 249.328 404.042 249.328C405.288 249.328 406.408 249.573 407.402 250.063C408.41 250.539 409.264 251.232 409.964 252.142C410.664 253.038 411.203 254.13 411.581 255.418C411.959 256.706 412.148 258.162 412.148 259.786C412.148 261.508 411.931 263.076 411.497 264.49C411.077 265.904 410.468 267.115 409.67 268.123C408.886 269.131 407.927 269.915 406.793 270.475C405.659 271.021 404.385 271.294 402.971 271.294C402.285 271.294 401.655 271.224 401.081 271.084C400.507 270.958 399.975 270.769 399.485 270.517C399.009 270.265 398.568 269.957 398.162 269.593C397.756 269.229 397.371 268.816 397.007 268.354L396.818 270.139C396.706 270.713 396.356 271 395.768 271H393.122V240.004H397.217V252.604ZM420.801 265.75C421.473 266.632 422.201 267.248 422.985 267.598C423.769 267.948 424.623 268.123 425.547 268.123C427.451 268.123 428.914 267.444 429.936 266.086C430.972 264.728 431.49 262.677 431.49 259.933C431.49 257.399 431.035 255.544 430.125 254.368C429.215 253.178 427.927 252.583 426.261 252.583C425.085 252.583 424.063 252.849 423.195 253.381C422.341 253.913 421.543 254.669 420.801 255.649V265.75ZM420.801 252.604C421.683 251.624 422.684 250.833 423.804 250.231C424.924 249.629 426.198 249.328 427.626 249.328C428.872 249.328 429.992 249.573 430.986 250.063C431.994 250.539 432.848 251.232 433.548 252.142C434.248 253.038 434.787 254.13 435.165 255.418C435.543 256.706 435.732 258.162 435.732 259.786C435.732 261.508 435.515 263.076 435.081 264.49C434.661 265.904 434.052 267.115 433.254 268.123C432.47 269.131 431.511 269.915 430.377 270.475C429.243 271.021 427.969 271.294 426.555 271.294C425.869 271.294 425.239 271.224 424.665 271.084C424.091 270.958 423.559 270.769 423.069 270.517C422.593 270.265 422.152 269.957 421.746 269.593C421.34 269.229 420.955 268.816 420.591 268.354L420.402 270.139C420.29 270.713 419.94 271 419.352 271H416.706V240.004H420.801V252.604ZM451.756 261.529C450.09 261.585 448.676 261.718 447.514 261.928C446.352 262.124 445.407 262.39 444.679 262.726C443.951 263.062 443.426 263.461 443.104 263.923C442.782 264.371 442.621 264.875 442.621 265.435C442.621 265.967 442.705 266.429 442.873 266.821C443.055 267.199 443.293 267.514 443.587 267.766C443.895 268.004 444.252 268.179 444.658 268.291C445.064 268.403 445.505 268.459 445.981 268.459C446.611 268.459 447.185 268.396 447.703 268.27C448.235 268.144 448.732 267.969 449.194 267.745C449.656 267.507 450.097 267.22 450.517 266.884C450.937 266.548 451.35 266.163 451.756 265.729V261.529ZM439.744 252.646C440.934 251.512 442.222 250.665 443.608 250.105C445.008 249.545 446.541 249.265 448.207 249.265C449.425 249.265 450.503 249.468 451.441 249.874C452.379 250.266 453.17 250.819 453.814 251.533C454.458 252.247 454.941 253.101 455.263 254.095C455.599 255.089 455.767 256.188 455.767 257.392V271H453.94C453.534 271 453.226 270.937 453.016 270.811C452.806 270.671 452.638 270.419 452.512 270.055L452.071 268.186C451.525 268.69 450.986 269.138 450.454 269.53C449.922 269.908 449.362 270.237 448.774 270.517C448.2 270.783 447.584 270.986 446.926 271.126C446.268 271.266 445.54 271.336 444.742 271.336C443.902 271.336 443.111 271.224 442.369 271C441.641 270.762 441.004 270.405 440.458 269.929C439.912 269.453 439.478 268.858 439.156 268.144C438.848 267.43 438.694 266.597 438.694 265.645C438.694 264.805 438.918 264 439.366 263.23C439.828 262.446 440.57 261.746 441.592 261.13C442.628 260.514 443.972 260.01 445.624 259.618C447.29 259.226 449.334 259.002 451.756 258.946V257.392C451.756 255.782 451.413 254.578 450.727 253.78C450.041 252.982 449.033 252.583 447.703 252.583C446.807 252.583 446.051 252.695 445.435 252.919C444.833 253.143 444.308 253.395 443.86 253.675C443.426 253.941 443.041 254.186 442.705 254.41C442.383 254.634 442.047 254.746 441.697 254.746C441.417 254.746 441.172 254.669 440.962 254.515C440.766 254.361 440.605 254.179 440.479 253.969L439.744 252.646ZM465.113 253.759C465.799 252.359 466.625 251.26 467.591 250.462C468.557 249.664 469.719 249.265 471.077 249.265C471.539 249.265 471.973 249.321 472.379 249.433C472.799 249.531 473.163 249.685 473.471 249.895L473.198 252.982C473.1 253.36 472.869 253.549 472.505 253.549C472.309 253.549 472.015 253.514 471.623 253.444C471.231 253.36 470.811 253.318 470.363 253.318C469.705 253.318 469.124 253.416 468.62 253.612C468.116 253.794 467.661 254.074 467.255 254.452C466.863 254.816 466.513 255.271 466.205 255.817C465.897 256.349 465.61 256.958 465.344 257.644V271H461.249V249.664H463.601C464.049 249.664 464.35 249.748 464.504 249.916C464.672 250.07 464.791 250.35 464.861 250.756L465.113 253.759ZM479.423 238.828C480.039 239.85 480.452 240.928 480.662 242.062C480.886 243.182 480.914 244.295 480.746 245.401C480.578 246.493 480.214 247.55 479.654 248.572C479.094 249.58 478.352 250.483 477.428 251.281L476.168 250.483C475.93 250.329 475.825 250.147 475.853 249.937C475.881 249.713 475.958 249.538 476.084 249.412C476.434 248.992 476.735 248.474 476.987 247.858C477.253 247.228 477.428 246.549 477.512 245.821C477.596 245.079 477.568 244.316 477.428 243.532C477.288 242.748 476.994 241.978 476.546 241.222C476.35 240.9 476.294 240.613 476.378 240.361C476.462 240.109 476.644 239.927 476.924 239.815L479.423 238.828ZM497.289 253.339C497.177 253.521 497.058 253.654 496.932 253.738C496.806 253.808 496.645 253.843 496.449 253.843C496.225 253.843 495.973 253.766 495.693 253.612C495.427 253.458 495.098 253.29 494.706 253.108C494.328 252.926 493.88 252.758 493.362 252.604C492.844 252.45 492.228 252.373 491.514 252.373C490.926 252.373 490.387 252.45 489.897 252.604C489.421 252.744 489.015 252.947 488.679 253.213C488.343 253.465 488.084 253.773 487.902 254.137C487.72 254.487 487.629 254.865 487.629 255.271C487.629 255.803 487.783 256.244 488.091 256.594C488.413 256.944 488.826 257.245 489.33 257.497C489.848 257.749 490.429 257.98 491.073 258.19C491.731 258.386 492.396 258.596 493.068 258.82C493.754 259.044 494.419 259.303 495.063 259.597C495.721 259.877 496.302 260.234 496.806 260.668C497.324 261.088 497.737 261.599 498.045 262.201C498.367 262.803 498.528 263.538 498.528 264.406C498.528 265.4 498.346 266.324 497.982 267.178C497.632 268.018 497.107 268.746 496.407 269.362C495.721 269.978 494.867 270.461 493.845 270.811C492.823 271.161 491.654 271.336 490.338 271.336C488.868 271.336 487.51 271.091 486.264 270.601C485.018 270.111 483.975 269.488 483.135 268.732L484.101 267.157C484.213 266.961 484.353 266.814 484.521 266.716C484.689 266.604 484.913 266.548 485.193 266.548C485.459 266.548 485.732 266.646 486.012 266.842C486.292 267.038 486.628 267.255 487.02 267.493C487.412 267.717 487.888 267.927 488.448 268.123C489.008 268.305 489.708 268.396 490.548 268.396C491.248 268.396 491.857 268.312 492.375 268.144C492.893 267.962 493.32 267.724 493.656 267.43C494.006 267.122 494.265 266.772 494.433 266.38C494.601 265.988 494.685 265.575 494.685 265.141C494.685 264.581 494.524 264.119 494.202 263.755C493.894 263.377 493.481 263.055 492.963 262.789C492.459 262.523 491.878 262.292 491.22 262.096C490.562 261.9 489.89 261.69 489.204 261.466C488.518 261.242 487.846 260.983 487.188 260.689C486.53 260.395 485.942 260.024 485.424 259.576C484.92 259.128 484.507 258.582 484.185 257.938C483.877 257.294 483.723 256.51 483.723 255.586C483.723 254.76 483.891 253.969 484.227 253.213C484.577 252.457 485.074 251.792 485.718 251.218C486.376 250.644 487.181 250.189 488.133 249.853C489.099 249.503 490.198 249.328 491.43 249.328C492.844 249.328 494.118 249.552 495.252 250C496.4 250.448 497.38 251.064 498.192 251.848L497.289 253.339ZM158.521 306.363C159.655 306.363 160.649 306.216 161.503 305.922C162.371 305.628 163.092 305.215 163.666 304.683C164.254 304.137 164.695 303.493 164.989 302.751C165.283 301.995 165.43 301.162 165.43 300.252C165.43 298.418 164.856 296.976 163.708 295.926C162.574 294.876 160.845 294.351 158.521 294.351H153.859V306.363H158.521ZM158.521 290.844C160.453 290.844 162.133 291.068 163.561 291.516C164.989 291.964 166.172 292.601 167.11 293.427C168.048 294.239 168.741 295.226 169.189 296.388C169.651 297.55 169.882 298.838 169.882 300.252C169.882 301.666 169.637 302.968 169.147 304.158C168.657 305.334 167.936 306.349 166.984 307.203C166.032 308.057 164.842 308.722 163.414 309.198C162 309.66 160.369 309.891 158.521 309.891H153.859V321H149.386V290.844H158.521ZM177.47 303.759C178.156 302.359 178.982 301.26 179.948 300.462C180.914 299.664 182.076 299.265 183.434 299.265C183.896 299.265 184.33 299.321 184.736 299.433C185.156 299.531 185.52 299.685 185.828 299.895L185.555 302.982C185.457 303.36 185.226 303.549 184.862 303.549C184.666 303.549 184.372 303.514 183.98 303.444C183.588 303.36 183.168 303.318 182.72 303.318C182.062 303.318 181.481 303.416 180.977 303.612C180.473 303.794 180.018 304.074 179.612 304.452C179.22 304.816 178.87 305.271 178.562 305.817C178.254 306.349 177.967 306.958 177.701 307.644V321H173.606V299.664H175.958C176.406 299.664 176.707 299.748 176.861 299.916C177.029 300.07 177.148 300.35 177.218 300.756L177.47 303.759ZM202.341 307.959C202.341 307.147 202.222 306.398 201.984 305.712C201.76 305.026 201.424 304.431 200.976 303.927C200.528 303.423 199.982 303.031 199.338 302.751C198.694 302.471 197.952 302.331 197.112 302.331C195.39 302.331 194.032 302.828 193.038 303.822C192.058 304.816 191.435 306.195 191.169 307.959H202.341ZM205.722 317.955C205.218 318.543 204.637 319.054 203.979 319.488C203.321 319.908 202.621 320.251 201.879 320.517C201.137 320.783 200.367 320.979 199.569 321.105C198.785 321.231 198.008 321.294 197.238 321.294C195.768 321.294 194.403 321.049 193.143 320.559C191.897 320.055 190.812 319.327 189.888 318.375C188.978 317.409 188.264 316.219 187.746 314.805C187.242 313.377 186.99 311.739 186.99 309.891C186.99 308.407 187.221 307.028 187.683 305.754C188.145 304.466 188.803 303.346 189.657 302.394C190.525 301.442 191.582 300.693 192.828 300.147C194.074 299.601 195.474 299.328 197.028 299.328C198.33 299.328 199.527 299.545 200.619 299.979C201.725 300.399 202.677 301.015 203.475 301.827C204.273 302.639 204.896 303.64 205.344 304.83C205.806 306.02 206.037 307.378 206.037 308.904C206.037 309.534 205.967 309.961 205.827 310.185C205.687 310.395 205.428 310.5 205.05 310.5H191.064C191.106 311.774 191.288 312.887 191.61 313.839C191.932 314.777 192.373 315.561 192.933 316.191C193.507 316.821 194.186 317.29 194.97 317.598C195.754 317.906 196.629 318.06 197.595 318.06C198.505 318.06 199.289 317.955 199.947 317.745C200.619 317.535 201.193 317.311 201.669 317.073C202.159 316.821 202.565 316.59 202.887 316.38C203.223 316.17 203.517 316.065 203.769 316.065C204.105 316.065 204.364 316.191 204.546 316.443L205.722 317.955ZM210.124 306.636H220.624V310.122H210.124V306.636ZM244.167 317.241V321H226.905V290.844H231.378V317.241H244.167ZM255.379 299.328C256.947 299.328 258.361 299.587 259.621 300.105C260.895 300.609 261.973 301.344 262.855 302.31C263.751 303.262 264.437 304.417 264.913 305.775C265.389 307.119 265.627 308.631 265.627 310.311C265.627 311.991 265.389 313.51 264.913 314.868C264.437 316.226 263.751 317.381 262.855 318.333C261.973 319.285 260.895 320.02 259.621 320.538C258.361 321.042 256.947 321.294 255.379 321.294C253.797 321.294 252.369 321.042 251.095 320.538C249.835 320.02 248.757 319.285 247.861 318.333C246.965 317.381 246.272 316.226 245.782 314.868C245.306 313.51 245.068 311.991 245.068 310.311C245.068 308.631 245.306 307.119 245.782 305.775C246.272 304.417 246.965 303.262 247.861 302.31C248.757 301.344 249.835 300.609 251.095 300.105C252.369 299.587 253.797 299.328 255.379 299.328ZM255.379 318.102C257.395 318.102 258.9 317.423 259.894 316.065C260.888 314.707 261.385 312.796 261.385 310.332C261.385 307.868 260.888 305.957 259.894 304.599C258.9 303.227 257.395 302.541 255.379 302.541C253.335 302.541 251.809 303.227 250.801 304.599C249.807 305.957 249.31 307.868 249.31 310.332C249.31 312.796 249.807 314.707 250.801 316.065C251.809 317.423 253.335 318.102 255.379 318.102ZM288.105 299.664L279.453 321H275.757L267.105 299.664H270.486C270.808 299.664 271.074 299.741 271.284 299.895C271.494 300.049 271.634 300.245 271.704 300.483L276.807 313.587C276.989 314.133 277.143 314.679 277.269 315.225C277.409 315.757 277.535 316.289 277.647 316.821C277.759 316.289 277.885 315.757 278.025 315.225C278.165 314.693 278.333 314.147 278.529 313.587L283.695 300.483C283.779 300.245 283.926 300.049 284.136 299.895C284.346 299.741 284.598 299.664 284.892 299.664H288.105ZM304.88 307.959C304.88 307.147 304.761 306.398 304.523 305.712C304.299 305.026 303.963 304.431 303.515 303.927C303.067 303.423 302.521 303.031 301.877 302.751C301.233 302.471 300.491 302.331 299.651 302.331C297.929 302.331 296.571 302.828 295.577 303.822C294.597 304.816 293.974 306.195 293.708 307.959H304.88ZM308.261 317.955C307.757 318.543 307.176 319.054 306.518 319.488C305.86 319.908 305.16 320.251 304.418 320.517C303.676 320.783 302.906 320.979 302.108 321.105C301.324 321.231 300.547 321.294 299.777 321.294C298.307 321.294 296.942 321.049 295.682 320.559C294.436 320.055 293.351 319.327 292.427 318.375C291.517 317.409 290.803 316.219 290.285 314.805C289.781 313.377 289.529 311.739 289.529 309.891C289.529 308.407 289.76 307.028 290.222 305.754C290.684 304.466 291.342 303.346 292.196 302.394C293.064 301.442 294.121 300.693 295.367 300.147C296.613 299.601 298.013 299.328 299.567 299.328C300.869 299.328 302.066 299.545 303.158 299.979C304.264 300.399 305.216 301.015 306.014 301.827C306.812 302.639 307.435 303.64 307.883 304.83C308.345 306.02 308.576 307.378 308.576 308.904C308.576 309.534 308.506 309.961 308.366 310.185C308.226 310.395 307.967 310.5 307.589 310.5H293.603C293.645 311.774 293.827 312.887 294.149 313.839C294.471 314.777 294.912 315.561 295.472 316.191C296.046 316.821 296.725 317.29 297.509 317.598C298.293 317.906 299.168 318.06 300.134 318.06C301.044 318.06 301.828 317.955 302.486 317.745C303.158 317.535 303.732 317.311 304.208 317.073C304.698 316.821 305.104 316.59 305.426 316.38C305.762 316.17 306.056 316.065 306.308 316.065C306.644 316.065 306.903 316.191 307.085 316.443L308.261 317.955ZM326.733 304.83C326.061 303.948 325.333 303.332 324.549 302.982C323.779 302.632 322.911 302.457 321.945 302.457C320.069 302.457 318.613 303.136 317.577 304.494C316.555 305.838 316.044 307.805 316.044 310.395C316.044 311.753 316.156 312.915 316.38 313.881C316.618 314.833 316.954 315.617 317.388 316.233C317.836 316.835 318.382 317.283 319.026 317.577C319.67 317.857 320.398 317.997 321.21 317.997C322.4 317.997 323.429 317.731 324.297 317.199C325.165 316.667 325.977 315.918 326.733 314.952V304.83ZM330.849 290.004V321H328.371C327.797 321 327.44 320.727 327.3 320.181L326.943 317.724C326.033 318.802 324.997 319.67 323.835 320.328C322.687 320.972 321.357 321.294 319.845 321.294C318.627 321.294 317.521 321.056 316.527 320.58C315.547 320.104 314.707 319.411 314.007 318.501C313.307 317.577 312.768 316.436 312.39 315.078C312.012 313.72 311.823 312.159 311.823 310.395C311.823 308.813 312.033 307.343 312.453 305.985C312.873 304.627 313.482 303.451 314.28 302.457C315.078 301.463 316.044 300.686 317.178 300.126C318.312 299.552 319.593 299.265 321.021 299.265C322.309 299.265 323.401 299.475 324.297 299.895C325.207 300.315 326.019 300.91 326.733 301.68V290.004H330.849ZM348.592 321V303.024L346.366 302.751C346.044 302.681 345.778 302.569 345.568 302.415C345.372 302.247 345.274 302.009 345.274 301.701V300H348.592V298.068C348.592 296.85 348.767 295.765 349.117 294.813C349.467 293.861 349.964 293.056 350.608 292.398C351.266 291.726 352.05 291.222 352.96 290.886C353.884 290.536 354.92 290.361 356.068 290.361C357.034 290.361 357.923 290.501 358.735 290.781L358.651 292.839C358.637 293.021 358.581 293.161 358.483 293.259C358.385 293.343 358.252 293.406 358.084 293.448C357.93 293.49 357.734 293.518 357.496 293.532C357.272 293.532 357.027 293.532 356.761 293.532C356.131 293.532 355.557 293.609 355.039 293.763C354.521 293.917 354.08 294.176 353.716 294.54C353.352 294.904 353.072 295.387 352.876 295.989C352.68 296.577 352.582 297.312 352.582 298.194V300H358.567V302.982H352.708V321H348.592ZM373.334 311.529C371.668 311.585 370.254 311.718 369.092 311.928C367.93 312.124 366.985 312.39 366.257 312.726C365.529 313.062 365.004 313.461 364.682 313.923C364.36 314.371 364.199 314.875 364.199 315.435C364.199 315.967 364.283 316.429 364.451 316.821C364.633 317.199 364.871 317.514 365.165 317.766C365.473 318.004 365.83 318.179 366.236 318.291C366.642 318.403 367.083 318.459 367.559 318.459C368.189 318.459 368.763 318.396 369.281 318.27C369.813 318.144 370.31 317.969 370.772 317.745C371.234 317.507 371.675 317.22 372.095 316.884C372.515 316.548 372.928 316.163 373.334 315.729V311.529ZM361.322 302.646C362.512 301.512 363.8 300.665 365.186 300.105C366.586 299.545 368.119 299.265 369.785 299.265C371.003 299.265 372.081 299.468 373.019 299.874C373.957 300.266 374.748 300.819 375.392 301.533C376.036 302.247 376.519 303.101 376.841 304.095C377.177 305.089 377.345 306.188 377.345 307.392V321H375.518C375.112 321 374.804 320.937 374.594 320.811C374.384 320.671 374.216 320.419 374.09 320.055L373.649 318.186C373.103 318.69 372.564 319.138 372.032 319.53C371.5 319.908 370.94 320.237 370.352 320.517C369.778 320.783 369.162 320.986 368.504 321.126C367.846 321.266 367.118 321.336 366.32 321.336C365.48 321.336 364.689 321.224 363.947 321C363.219 320.762 362.582 320.405 362.036 319.929C361.49 319.453 361.056 318.858 360.734 318.144C360.426 317.43 360.272 316.597 360.272 315.645C360.272 314.805 360.496 314 360.944 313.23C361.406 312.446 362.148 311.746 363.17 311.13C364.206 310.514 365.55 310.01 367.202 309.618C368.868 309.226 370.912 309.002 373.334 308.946V307.392C373.334 305.782 372.991 304.578 372.305 303.78C371.619 302.982 370.611 302.583 369.281 302.583C368.385 302.583 367.629 302.695 367.013 302.919C366.411 303.143 365.886 303.395 365.438 303.675C365.004 303.941 364.619 304.186 364.283 304.41C363.961 304.634 363.625 304.746 363.275 304.746C362.995 304.746 362.75 304.669 362.54 304.515C362.344 304.361 362.183 304.179 362.057 303.969L361.322 302.646ZM395.406 303.339C395.294 303.521 395.175 303.654 395.049 303.738C394.923 303.808 394.762 303.843 394.566 303.843C394.342 303.843 394.09 303.766 393.81 303.612C393.544 303.458 393.215 303.29 392.823 303.108C392.445 302.926 391.997 302.758 391.479 302.604C390.961 302.45 390.345 302.373 389.631 302.373C389.043 302.373 388.504 302.45 388.014 302.604C387.538 302.744 387.132 302.947 386.796 303.213C386.46 303.465 386.201 303.773 386.019 304.137C385.837 304.487 385.746 304.865 385.746 305.271C385.746 305.803 385.9 306.244 386.208 306.594C386.53 306.944 386.943 307.245 387.447 307.497C387.965 307.749 388.546 307.98 389.19 308.19C389.848 308.386 390.513 308.596 391.185 308.82C391.871 309.044 392.536 309.303 393.18 309.597C393.838 309.877 394.419 310.234 394.923 310.668C395.441 311.088 395.854 311.599 396.162 312.201C396.484 312.803 396.645 313.538 396.645 314.406C396.645 315.4 396.463 316.324 396.099 317.178C395.749 318.018 395.224 318.746 394.524 319.362C393.838 319.978 392.984 320.461 391.962 320.811C390.94 321.161 389.771 321.336 388.455 321.336C386.985 321.336 385.627 321.091 384.381 320.601C383.135 320.111 382.092 319.488 381.252 318.732L382.218 317.157C382.33 316.961 382.47 316.814 382.638 316.716C382.806 316.604 383.03 316.548 383.31 316.548C383.576 316.548 383.849 316.646 384.129 316.842C384.409 317.038 384.745 317.255 385.137 317.493C385.529 317.717 386.005 317.927 386.565 318.123C387.125 318.305 387.825 318.396 388.665 318.396C389.365 318.396 389.974 318.312 390.492 318.144C391.01 317.962 391.437 317.724 391.773 317.43C392.123 317.122 392.382 316.772 392.55 316.38C392.718 315.988 392.802 315.575 392.802 315.141C392.802 314.581 392.641 314.119 392.319 313.755C392.011 313.377 391.598 313.055 391.08 312.789C390.576 312.523 389.995 312.292 389.337 312.096C388.679 311.9 388.007 311.69 387.321 311.466C386.635 311.242 385.963 310.983 385.305 310.689C384.647 310.395 384.059 310.024 383.541 309.576C383.037 309.128 382.624 308.582 382.302 307.938C381.994 307.294 381.84 306.51 381.84 305.586C381.84 304.76 382.008 303.969 382.344 303.213C382.694 302.457 383.191 301.792 383.835 301.218C384.493 300.644 385.298 300.189 386.25 299.853C387.216 299.503 388.315 299.328 389.547 299.328C390.961 299.328 392.235 299.552 393.369 300C394.517 300.448 395.497 301.064 396.309 301.848L395.406 303.339ZM405.174 302.373C406.07 301.463 407.057 300.728 408.135 300.168C409.227 299.608 410.48 299.328 411.894 299.328C413.07 299.328 414.099 299.524 414.981 299.916C415.877 300.308 416.626 300.861 417.228 301.575C417.83 302.275 418.285 303.122 418.593 304.116C418.901 305.11 419.055 306.209 419.055 307.413V321H414.939V307.413C414.939 305.887 414.589 304.704 413.889 303.864C413.189 303.01 412.118 302.583 410.676 302.583C409.626 302.583 408.639 302.835 407.715 303.339C406.805 303.829 405.958 304.501 405.174 305.355V321H401.079V290.004H405.174V302.373ZM428.865 299.664V321H424.77V299.664H428.865ZM429.642 293.07C429.642 293.448 429.565 293.812 429.411 294.162C429.257 294.498 429.047 294.799 428.781 295.065C428.529 295.317 428.228 295.52 427.878 295.674C427.528 295.814 427.164 295.884 426.786 295.884C426.408 295.884 426.051 295.814 425.715 295.674C425.379 295.52 425.078 295.317 424.812 295.065C424.56 294.799 424.357 294.498 424.203 294.162C424.063 293.812 423.993 293.448 423.993 293.07C423.993 292.678 424.063 292.314 424.203 291.978C424.357 291.628 424.56 291.327 424.812 291.075C425.078 290.809 425.379 290.606 425.715 290.466C426.051 290.312 426.408 290.235 426.786 290.235C427.164 290.235 427.528 290.312 427.878 290.466C428.228 290.606 428.529 290.809 428.781 291.075C429.047 291.327 429.257 291.628 429.411 291.978C429.565 292.314 429.642 292.678 429.642 293.07ZM443.887 299.328C445.455 299.328 446.869 299.587 448.129 300.105C449.403 300.609 450.481 301.344 451.363 302.31C452.259 303.262 452.945 304.417 453.421 305.775C453.897 307.119 454.135 308.631 454.135 310.311C454.135 311.991 453.897 313.51 453.421 314.868C452.945 316.226 452.259 317.381 451.363 318.333C450.481 319.285 449.403 320.02 448.129 320.538C446.869 321.042 445.455 321.294 443.887 321.294C442.305 321.294 440.877 321.042 439.603 320.538C438.343 320.02 437.265 319.285 436.369 318.333C435.473 317.381 434.78 316.226 434.29 314.868C433.814 313.51 433.576 311.991 433.576 310.311C433.576 308.631 433.814 307.119 434.29 305.775C434.78 304.417 435.473 303.262 436.369 302.31C437.265 301.344 438.343 300.609 439.603 300.105C440.877 299.587 442.305 299.328 443.887 299.328ZM443.887 318.102C445.903 318.102 447.408 317.423 448.402 316.065C449.396 314.707 449.893 312.796 449.893 310.332C449.893 307.868 449.396 305.957 448.402 304.599C447.408 303.227 445.903 302.541 443.887 302.541C441.843 302.541 440.317 303.227 439.309 304.599C438.315 305.957 437.818 307.868 437.818 310.332C437.818 312.796 438.315 314.707 439.309 316.065C440.317 317.423 441.843 318.102 443.887 318.102ZM462.549 302.625C463.011 302.135 463.494 301.687 463.998 301.281C464.502 300.875 465.034 300.532 465.594 300.252C466.168 299.958 466.777 299.734 467.421 299.58C468.079 299.412 468.779 299.328 469.521 299.328C470.697 299.328 471.726 299.524 472.608 299.916C473.504 300.308 474.253 300.861 474.855 301.575C475.457 302.275 475.912 303.122 476.22 304.116C476.528 305.11 476.682 306.209 476.682 307.413V321H472.566V307.413C472.566 305.887 472.216 304.704 471.516 303.864C470.816 303.01 469.745 302.583 468.303 302.583C467.253 302.583 466.266 302.835 465.342 303.339C464.432 303.829 463.585 304.501 462.801 305.355V321H458.706V299.664H461.163C461.737 299.664 462.094 299.937 462.234 300.483L462.549 302.625Z" fill="#333333"/>
</svg>
